<svg id="Layer_1" data-name="Layer 1" xmlns="http://www.w3.org/2000/svg" viewBox="0 0 226.77 70.87"><defs><style>.cls-1{opacity:0.7;}.cls-2{fill:#f9b233;}.cls-3{font-size:31px;fill:#1d1d1b;font-family:Eczar-Regular, Eczar;}.cls-4{letter-spacing:-0.01em;}.cls-5{letter-spacing:-0.01em;}.cls-6{letter-spacing:-0.01em;}.cls-7{letter-spacing:-0.02em;}</style></defs><title>logo</title><g class="cls-1"><rect class="cls-2" x="85.53" y="5.66" width="9.67" height="2.76"/><rect class="cls-2" x="85.83" y="19.5" width="9.67" height="2.76"/><rect class="cls-2" x="91.83" y="9.2" width="9.67" height="2.76" transform="translate(135.84 99.59) rotate(-120)"/><rect class="cls-2" x="91.83" y="16.09" width="9.67" height="2.76" transform="translate(33.2 92.45) rotate(-60)"/><rect class="cls-2" x="79.54" y="16.09" width="9.67" height="2.76" transform="translate(111.43 99.28) rotate(-120)"/><rect class="cls-2" x="79.54" y="9.19" width="9.67" height="2.76" transform="matrix(-0.5, 0.87, -0.87, -0.5, 135.72, -57.21)"/><rect class="cls-2" x="77.05" y="19.8" width="9.67" height="2.76"/><rect class="cls-2" x="77.35" y="33.64" width="9.67" height="2.76"/><rect class="cls-2" x="83.36" y="23.34" width="9.67" height="2.76" transform="translate(110.88 113.46) rotate(-120)"/><rect class="cls-2" x="83.36" y="30.23" width="9.67" height="2.76" transform="translate(16.72 92.18) rotate(-60)"/><rect class="cls-2" x="71.07" y="30.23" width="9.67" height="2.76" transform="translate(86.48 113.14) rotate(-120)"/><rect class="cls-2" x="71.07" y="23.33" width="9.67" height="2.76" transform="matrix(-0.5, 0.87, -0.87, -0.5, 135.25, -28.66)"/><rect class="cls-2" x="85.69" y="33.6" width="9.67" height="2.76"/><rect class="cls-2" x="85.99" y="47.44" width="9.67" height="2.76"/><rect class="cls-2" x="91.99" y="37.14" width="9.67" height="2.76" transform="translate(111.88 141.64) rotate(-120)"/><rect class="cls-2" x="91.99" y="44.03" width="9.67" height="2.76" transform="translate(9.09 106.56) rotate(-60)"/><rect class="cls-2" x="79.7" y="44.03" width="9.67" height="2.76" transform="matrix(-0.5, -0.87, 0.87, -0.5, 87.48, 141.33)"/><rect class="cls-2" x="79.7" y="37.13" width="9.67" height="2.76" transform="matrix(-0.5, 0.87, -0.87, -0.5, 160.16, -15.44)"/><rect class="cls-2" x="77.19" y="47.57" width="9.67" height="2.76"/><rect class="cls-2" x="77.49" y="61.4" width="9.67" height="2.76"/><rect class="cls-2" x="83.5" y="51.11" width="9.67" height="2.76" transform="translate(87.05 155.23) rotate(-120)"/><rect class="cls-2" x="83.5" y="57.99" width="9.67" height="2.76" transform="translate(-7.25 106.19) rotate(-60)"/><rect class="cls-2" x="71.21" y="57.99" width="9.67" height="2.76" transform="translate(62.64 154.92) rotate(-120)"/><rect class="cls-2" x="71.21" y="51.1" width="9.67" height="2.76" transform="translate(159.51 12.87) rotate(120)"/><rect class="cls-2" x="60.68" y="47.57" width="9.67" height="2.76"/><rect class="cls-2" x="60.98" y="61.4" width="9.67" height="2.76"/><rect class="cls-2" x="66.99" y="51.11" width="9.67" height="2.76" transform="translate(62.28 140.93) rotate(-120)"/><rect class="cls-2" x="66.99" y="57.99" width="9.67" height="2.76" transform="translate(-15.51 91.89) rotate(-60)"/><rect class="cls-2" x="54.69" y="57.99" width="9.67" height="2.76" transform="translate(37.87 140.62) rotate(-120)"/><rect class="cls-2" x="54.69" y="51.1" width="9.67" height="2.76" transform="translate(134.74 27.17) rotate(120)"/><rect class="cls-2" x="52.9" y="33.66" width="9.67" height="2.76"/><rect class="cls-2" x="53.2" y="47.5" width="9.67" height="2.76"/><rect class="cls-2" x="59.21" y="37.2" width="9.67" height="2.76" transform="translate(62.65 113.33) rotate(-120)"/><rect class="cls-2" x="59.21" y="44.09" width="9.67" height="2.76" transform="translate(-7.36 78.2) rotate(-60)"/><rect class="cls-2" x="46.91" y="44.09" width="9.67" height="2.76" transform="matrix(-0.5, -0.87, 0.87, -0.5, 38.25, 113.02)"/><rect class="cls-2" x="46.91" y="37.19" width="9.67" height="2.76" transform="matrix(-0.5, 0.87, -0.87, -0.5, 111.03, 13.04)"/><rect class="cls-2" x="101.88" y="33.57" width="9.67" height="2.76"/><rect class="cls-2" x="102.18" y="47.41" width="9.67" height="2.76"/><rect class="cls-2" x="108.19" y="37.11" width="9.67" height="2.76" transform="translate(136.2 155.62) rotate(-120)"/><rect class="cls-2" x="108.19" y="44" width="9.67" height="2.76" transform="translate(17.21 120.57) rotate(-60)"/><rect class="cls-2" x="95.89" y="44" width="9.67" height="2.76" transform="matrix(-0.5, -0.87, 0.87, -0.5, 111.79, 155.3)"/><rect class="cls-2" x="95.89" y="37.1" width="9.67" height="2.76" transform="translate(184.42 -29.5) rotate(120)"/><rect class="cls-2" x="127.16" y="19.1" width="9.67" height="2.76"/><rect class="cls-2" x="127.47" y="32.93" width="9.67" height="2.76"/><rect class="cls-2" x="133.47" y="22.64" width="9.67" height="2.76" transform="translate(186.66 155.81) rotate(-120)"/><rect class="cls-2" x="133.47" y="29.53" width="9.67" height="2.76" transform="translate(42.39 135.23) rotate(-60)"/><rect class="cls-2" x="121.18" y="29.53" width="9.67" height="2.76" transform="matrix(-0.5, -0.87, 0.87, -0.5, 162.25, 155.49)"/><rect class="cls-2" x="121.18" y="22.63" width="9.67" height="2.76" transform="matrix(-0.5, 0.87, -0.87, -0.5, 209.82, -73.11)"/><rect class="cls-2" x="110.53" y="19.38" width="9.67" height="2.76"/><rect class="cls-2" x="110.83" y="33.22" width="9.67" height="2.76"/><rect class="cls-2" x="116.84" y="22.92" width="9.67" height="2.76" transform="translate(161.46 141.83) rotate(-120)"/><rect class="cls-2" x="116.84" y="29.81" width="9.67" height="2.76" transform="translate(33.82 120.97) rotate(-60)"/><rect class="cls-2" x="104.55" y="29.81" width="9.67" height="2.76" transform="translate(137.06 141.52) rotate(-120)"/><rect class="cls-2" x="104.55" y="22.92" width="9.67" height="2.76" transform="matrix(-0.5, 0.87, -0.87, -0.5, 185.11, -58.28)"/><rect class="cls-2" x="110.6" y="47.4" width="9.67" height="2.76"/><rect class="cls-2" x="110.9" y="61.23" width="9.67" height="2.76"/><rect class="cls-2" x="116.91" y="50.94" width="9.67" height="2.76" transform="translate(137.3 183.91) rotate(-120)"/><rect class="cls-2" x="116.91" y="57.83" width="9.67" height="2.76" transform="translate(9.6 135.04) rotate(-60)"/><rect class="cls-2" x="104.61" y="57.83" width="9.67" height="2.76" transform="matrix(-0.5, -0.87, 0.87, -0.5, 112.9, 183.6)"/><rect class="cls-2" x="104.61" y="50.93" width="9.67" height="2.76" transform="matrix(-0.5, 0.87, -0.87, -0.5, 209.48, -16.32)"/><rect class="cls-2" x="102.02" y="5.51" width="9.67" height="2.76"/><rect class="cls-2" x="102.32" y="19.35" width="9.67" height="2.76"/><rect class="cls-2" x="108.33" y="9.05" width="9.67" height="2.76" transform="translate(160.71 113.65) rotate(-120)"/><rect class="cls-2" x="108.33" y="15.94" width="9.67" height="2.76" transform="translate(41.58 106.66) rotate(-60)"/><rect class="cls-2" x="96.03" y="15.94" width="9.67" height="2.76" transform="translate(136.3 113.33) rotate(-120)"/><rect class="cls-2" x="96.03" y="9.04" width="9.67" height="2.76" transform="translate(160.33 -71.72) rotate(120)"/><rect class="cls-2" x="135.52" y="32.93" width="9.67" height="2.76"/><rect class="cls-2" x="135.82" y="46.77" width="9.67" height="2.76"/><rect class="cls-2" x="141.83" y="36.47" width="9.67" height="2.76" transform="translate(187.21 183.8) rotate(-120)"/><rect class="cls-2" x="141.83" y="43.36" width="9.67" height="2.76" transform="translate(34.58 149.38) rotate(-60)"/><rect class="cls-2" x="129.53" y="43.36" width="9.67" height="2.76" transform="matrix(-0.5, -0.87, 0.87, -0.5, 162.81, 183.48)"/><rect class="cls-2" x="129.53" y="36.46" width="9.67" height="2.76" transform="matrix(-0.5, 0.87, -0.87, -0.5, 234.33, -59.6)"/><rect class="cls-2" x="60.82" y="19.8" width="9.67" height="2.76"/><rect class="cls-2" x="61.12" y="33.64" width="9.67" height="2.76"/><rect class="cls-2" x="67.13" y="23.34" width="9.67" height="2.76" transform="translate(86.54 99.4) rotate(-120)"/><rect class="cls-2" x="67.13" y="30.23" width="9.67" height="2.76" transform="translate(8.61 78.13) rotate(-60)"/><rect class="cls-2" x="54.83" y="30.23" width="9.67" height="2.76" transform="matrix(-0.5, -0.87, 0.87, -0.5, 62.13, 99.09)"/><rect class="cls-2" x="54.83" y="23.33" width="9.67" height="2.76" transform="matrix(-0.5, 0.87, -0.87, -0.5, 110.91, -14.61)"/><rect class="cls-2" x="135.66" y="5.36" width="9.67" height="2.76"/><rect class="cls-2" x="135.96" y="19.2" width="9.67" height="2.76"/><rect class="cls-2" x="141.97" y="8.9" width="9.67" height="2.76" transform="translate(211.3 142.56) rotate(-120)"/><rect class="cls-2" x="141.97" y="15.79" width="9.67" height="2.76" transform="translate(58.53 135.72) rotate(-60)"/><rect class="cls-2" x="129.67" y="15.79" width="9.67" height="2.76" transform="matrix(-0.5, -0.87, 0.87, -0.5, 186.9, 142.24)"/><rect class="cls-2" x="129.67" y="8.89" width="9.67" height="2.76" transform="matrix(-0.5, 0.87, -0.87, -0.5, 210.66, -101.08)"/><rect class="cls-2" x="127" y="46.98" width="9.67" height="2.76"/><rect class="cls-2" x="127.31" y="60.82" width="9.67" height="2.76"/><rect class="cls-2" x="133.31" y="50.52" width="9.67" height="2.76" transform="translate(162.27 197.5) rotate(-120)"/><rect class="cls-2" x="133.31" y="57.41" width="9.67" height="2.76" transform="translate(18.16 149.03) rotate(-60)"/><rect class="cls-2" x="121.02" y="57.41" width="9.67" height="2.76" transform="matrix(-0.5, -0.87, 0.87, -0.5, 137.87, 197.18)"/><rect class="cls-2" x="121.02" y="50.51" width="9.67" height="2.76" transform="translate(233.72 -31.15) rotate(120)"/><rect class="cls-2" x="151.57" y="5.36" width="9.67" height="2.76"/><rect class="cls-2" x="151.87" y="19.2" width="9.67" height="2.76"/><rect class="cls-2" x="157.88" y="8.9" width="9.67" height="2.76" transform="translate(235.16 156.34) rotate(-120)"/><rect class="cls-2" x="157.88" y="15.79" width="9.67" height="2.76" transform="translate(66.49 149.5) rotate(-60)"/><rect class="cls-2" x="145.58" y="15.79" width="9.67" height="2.76" transform="matrix(-0.5, -0.87, 0.87, -0.5, 210.76, 156.02)"/><rect class="cls-2" x="145.58" y="8.89" width="9.67" height="2.76" transform="matrix(-0.5, 0.87, -0.87, -0.5, 234.53, -114.85)"/><rect class="cls-2" x="159.72" y="19.17" width="9.67" height="2.76"/><rect class="cls-2" x="160.02" y="33" width="9.67" height="2.76"/><rect class="cls-2" x="166.03" y="22.71" width="9.67" height="2.76" transform="translate(235.43 184.1) rotate(-120)"/><rect class="cls-2" x="166.03" y="29.59" width="9.67" height="2.76" transform="translate(58.61 163.46) rotate(-60)"/><rect class="cls-2" x="153.73" y="29.59" width="9.67" height="2.76" transform="matrix(-0.5, -0.87, 0.87, -0.5, 211.03, 183.79)"/><rect class="cls-2" x="153.73" y="22.7" width="9.67" height="2.76" transform="matrix(-0.5, 0.87, -0.87, -0.5, 258.7, -101.2)"/><rect class="cls-2" x="151.71" y="33.39" width="9.67" height="2.76"/><rect class="cls-2" x="152.01" y="47.22" width="9.67" height="2.76"/><rect class="cls-2" x="158.02" y="36.93" width="9.67" height="2.76" transform="translate(211.1 198.5) rotate(-120)"/><rect class="cls-2" x="158.02" y="43.81" width="9.67" height="2.76" transform="translate(42.28 163.63) rotate(-60)"/><rect class="cls-2" x="145.72" y="43.81" width="9.67" height="2.76" transform="translate(186.7 198.18) rotate(-120)"/><rect class="cls-2" x="145.72" y="36.92" width="9.67" height="2.76" transform="matrix(-0.5, 0.87, -0.87, -0.5, 259.01, -72.94)"/><rect class="cls-2" x="160.44" y="47.24" width="9.67" height="2.76"/><rect class="cls-2" x="160.74" y="61.07" width="9.67" height="2.76"/><rect class="cls-2" x="166.75" y="50.78" width="9.67" height="2.76" transform="translate(212.2 226.83) rotate(-120)"/><rect class="cls-2" x="166.75" y="57.66" width="9.67" height="2.76" transform="translate(34.66 178.12) rotate(-60)"/><rect class="cls-2" x="154.45" y="57.66" width="9.67" height="2.76" transform="translate(187.8 226.52) rotate(-120)"/><rect class="cls-2" x="154.45" y="50.77" width="9.67" height="2.76" transform="matrix(-0.5, 0.87, -0.87, -0.5, 284.1, -59.72)"/><rect class="cls-2" x="52.74" y="5.68" width="9.67" height="2.76"/><rect class="cls-2" x="53.04" y="19.51" width="9.67" height="2.76"/><rect class="cls-2" x="59.05" y="9.22" width="9.67" height="2.76" transform="translate(86.64 71.22) rotate(-120)"/><rect class="cls-2" x="59.05" y="16.11" width="9.67" height="2.76" transform="translate(16.8 64.07) rotate(-60)"/><rect class="cls-2" x="46.75" y="16.11" width="9.67" height="2.76" transform="matrix(-0.5, -0.87, 0.87, -0.5, 62.24, 70.91)"/><rect class="cls-2" x="46.75" y="9.21" width="9.67" height="2.76" transform="matrix(-0.5, 0.87, -0.87, -0.5, 86.56, -28.79)"/></g><text class="cls-3" transform="translate(6.48 43.98)"><tspan class="cls-4">s</tspan><tspan class="cls-5" x="12.68" y="0">h</tspan><tspan x="30.44" y="0">ee</tspan><tspan class="cls-6" x="58.4" y="0">s</tspan><tspan x="71.08" y="0">h</tspan></text><text class="cls-3" transform="translate(134.67 42.3)"><tspan class="cls-5">m</tspan><tspan x="26.75" y="0">a</tspan><tspan class="cls-7" x="42.47" y="0">h</tspan><tspan x="60.23" y="0">al</tspan></text></svg>
